<?xml version="1.0" encoding="utf-8"?>
<!-- Generator: Adobe Illustrator 19.2.1, SVG Export Plug-In . SVG Version: 6.00 Build 0)  -->
<svg version="1.1" id="Layer_1" xmlns="http://www.w3.org/2000/svg" xmlns:xlink="http://www.w3.org/1999/xlink" x="0px" y="0px"
	 viewBox="0 0 600 600" style="enable-background:new 0 0 600 600;" xml:space="preserve">
<style type="text/css">
	.st0{display:none;}
	.st1{display:inline;}
	.st2{fill:#9DBEBB;}
</style>
<g id="Layer_1_1_" class="st0">
	<g class="st1">
		<g>
			<path d="M182.5,134.5c-14.4,0-26,17.7-30.7,29.5c-5,12.5-4.6,30.3,9.5,36.6c6,2.7,10.6,1.4,14.2-3.8c4.9-6.9,9.2-14.7,12.1-22.7
				c4.5-12.5,2.3-30.7-13.4-33.5c-3.1-0.6-4.5,4.2-1.3,4.8c13,2.4,13.5,17.4,9.9,27.4c-2.1,5.7-5.1,11.1-8.2,16.2
				c-1.1,1.9-2.6,5.5-4.5,6.7c-3.5,2.3-7.6,0.4-10.3-2c-9.2-8.1-6.5-21.8-1.8-31.6c4.2-8.7,13.6-22.7,24.5-22.7
				C185.7,139.5,185.7,134.5,182.5,134.5L182.5,134.5z"/>
		</g>
	</g>
	<g class="st1">
		<g>
			<path d="M330.8,142.4c-2.5-5.4-9.1-4.8-13.9-3.2c-8.1,2.6-16.3,6.4-22.7,12.1c-12.1,10.7-13.9,26.6-4.2,39.5
				c8.7,11.5,23.8,23.3,39,20.9c15.3-2.4,25.7-15.5,27.1-30.5c1.7-18.1-9.6-33.9-24.6-42.9c-2.8-1.7-5.3,2.7-2.5,4.3
				c13.9,8.4,24.4,23.3,21.9,40.2c-2.3,15.5-17.7,28.4-33.7,23c-7.8-2.6-14.9-8.6-20.4-14.5s-9.8-13.6-8.2-22
				c1.6-8.1,7.7-14.4,14.6-18.6c3.5-2.1,20.4-12,23.3-5.8C327.8,147.8,332.1,145.3,330.8,142.4L330.8,142.4z"/>
		</g>
	</g>
	<g class="st1">
		<g>
			<path d="M135.6,228.5c-9.8,6.3-15.1,18-13.7,29.6c1.5,12.6,11.4,22.1,23.3,25.5c27.5,7.8,52.8-16.7,48.1-44.2
				c-0.5-2.8-5.1-2.1-4.9,0.7c1.8,28.7,7,65.2,39.7,74.1c15.3,4.2,33.3,3.1,48.7,0c14-2.7,28.7-7.7,30.1-23.9
				c1.4-16.9-6.3-34.6-16.5-47.5c-2-2.5-5.5,1-3.5,3.5c5.6,7.1,9.8,15.1,12.4,23.8c2.3,7.8,4.5,17.7,1.5,25.6
				c-3.3,8.8-14.4,11.3-22.6,13.2c-9.2,2.1-18.6,2.7-28,2.7c-17.7,0-33.9-4-44.1-19.5c-10.2-15.3-11.4-34.2-12.6-52
				c-1.6,0.2-3.3,0.4-4.9,0.7c3.9,23.3-17.3,43.9-40.6,38.4c-10.4-2.5-19.6-10.4-21-21.3c-1.2-9.6,3-19.6,11.3-24.9
				C140.8,231.1,138.3,226.7,135.6,228.5L135.6,228.5z"/>
		</g>
	</g>
	<g class="st1">
		<g>
			<path d="M128.4,214.6c-11.6-23.9-10.7-53.1,2-76.4c6.9-12.6,17.2-22.7,28.9-30.9c5.7-4,11.6-7.5,17.5-11c4.6-2.7,9.2-6,10.9-11.4
				c2.3-7.3,0.4-16.4,0-23.9c-0.5-9.9-1.1-19.8-1.6-29.7c-1.4,0.6-2.8,1.2-4.3,1.8c11.6,11.8,22.7,24.4,35,35.5
				c4.8,4.3,9.5,5.5,15.8,4.3c7.8-1.4,15.5-3.3,23.3-4.8c30.5-6,63.4-10.1,92.8,2.8c1,0.4,2.3,0.5,3-0.4
				c15.6-18.4,34.7-33.4,56.3-44.2c-1.2-0.5-2.4-1-3.7-1.5c2.5,8.9,4.2,18,4.8,27.3c0.3,4.4,0.4,8.8,0.2,13.3
				c-0.1,4.3-1.1,8.9-0.8,13.2c0.4,6.3,5.4,8,10.7,9.8c7.8,2.6,15.6,5.2,23.3,8.2c15.1,5.9,29.7,13.6,41.2,25.2
				c10.7,10.8,18.4,24.2,24,38.3c11.3,28.6,16.6,60.6,19.1,91.1c2.7,32.5,0.6,66.5-13.7,96.4c-13.3,27.8-36.3,49.5-62.1,65.7
				c-27.8,17.5-59.4,30.8-92,35.8c-36.5,5.6-73.6-1-108.9-10.4c-33.1-8.9-65.4-21.5-94.9-39c-27.7-16.5-53.4-38.2-65.5-68.9
				c-9.9-24.9-13.8-61.5,7.3-82.2c4.5-4.4,9.9-7.2,16-8.4c3.2-0.6,1.8-5.5-1.3-4.8C85.6,240.1,76,270.6,77,294
				c1.4,33.8,17.9,64.1,43.1,86.2c25.5,22.3,56.9,38,88.4,49.9c34.4,13,71.3,22.7,108,25.1c36.3,2.4,71.4-5.6,104.4-20.6
				c28.8-13.1,56.5-30.8,77.1-55.2c44.3-52.5,38.8-125.4,24.4-188.1c-6.8-29.6-18-60.2-42.3-79.9c-12.6-10.3-27.6-16.9-42.7-22.4
				c-3.7-1.4-7.5-2.6-11.3-3.9c-4.5-1.5-11.5-2.2-12.7-7.5c-0.8-3.6,0.7-8.7,0.9-12.4c0.2-5.1,0-10.1-0.4-15.2
				c-0.7-9.1-2.4-18-4.8-26.7c-0.5-1.6-2.2-2.2-3.7-1.5c-21.9,11-41.4,26.3-57.3,45c1-0.1,2-0.3,3-0.4
				c-26.8-11.7-56.1-10.3-84.4-5.5c-7.3,1.2-14.5,2.7-21.7,4.2c-8,1.7-17.9,6-24.7-0.1c-12.3-11-23.4-23.7-35-35.5
				c-1.5-1.5-4.4-0.4-4.3,1.8c0.5,8.6,0.9,17.2,1.4,25.8c0.2,4.3,0.5,8.6,0.7,12.9c0.2,4.1,1,8.9-0.1,12.9
				c-1.9,7-10.9,10.2-16.5,13.7c-5.9,3.6-11.6,7.5-17,11.9c-20.7,16.6-33.2,40.5-34.2,67.1c-0.5,14.4,2.5,28.7,8.8,41.7
				C125.5,220,129.8,217.5,128.4,214.6L128.4,214.6z"/>
		</g>
	</g>
	<g class="st1">
		<g>
			<path d="M324.3,149c-4.8-0.8-8.8,2.9-8.8,7.8c0,5.3,5,10.1,9.2,12.7c4.6,2.8,9.5,2.4,12.4-2.4c2.7-4.4,5.1-10.5,1.7-15.2
				c-1.9-2.6-6.2-0.1-4.3,2.5c2.6,3.6-1.2,13.7-6.3,11.3c-2.1-1-4-2.9-5.5-4.6c-0.7-0.8-1.4-1.7-1.8-2.8c-0.5-1.3-0.6-5,2.1-4.5
				C326.1,154.3,327.5,149.5,324.3,149L324.3,149z"/>
		</g>
	</g>
	<g class="st1">
		<g>
			<path d="M182.2,150.2c-3-2.8-8.2-7.1-12.3-3.9c-3.5,2.8-5.8,8.5-5.1,12.9c0.6,4.2,3.6,8.3,8.1,8.9c4.1,0.5,8.1-2,9.1-6.1
				c0.8-3.1-4-4.4-4.8-1.3c-0.5,2.1-2.8,3.1-4.8,2.1c-2.1-1-2.9-3.8-2.6-6c0.2-1.8,1.1-4.5,2.5-5.7c2.1-1.7,4.8,1.1,6.4,2.6
				C181,155.9,184.5,152.4,182.2,150.2L182.2,150.2z"/>
		</g>
	</g>
	<g class="st1">
		<g>
			<path d="M160.6,173.6c-0.7,3.6-0.3,6.9,1.2,10.2c0.9,2.1,4,1.3,4.6-0.6c1.1-3.7,1.5-7.5,1.1-11.3c-1.6,0.2-3.3,0.4-4.9,0.7
				c0.9,2.3,1.5,4.5,1.5,7s3.4,3.4,4.7,1.3c1.7-2.8,2.6-5.8,2.8-9.1c-1.7,0-3.3,0-5,0c-0.2,3.1-0.5,6.2-0.7,9.3c1.7,0,3.3,0,5,0
				c-0.3-3.1,0.1-6,1.3-9s-3.6-4.3-4.8-1.3c-1.3,3.3-1.8,6.8-1.5,10.3c0.3,3.2,4.8,3.2,5,0c0.2-3.1,0.5-6.2,0.7-9.3
				c0.2-3.2-4.7-3.2-5,0c-0.2,2.4-0.9,4.5-2.2,6.5c1.6,0.4,3.1,0.8,4.7,1.3c0-2.9-0.6-5.7-1.7-8.3c-0.5-1.2-1.4-2-2.7-1.8
				c-1.1,0.2-2.3,1.2-2.2,2.5c0.4,3.4,0.1,6.7-0.9,9.9c1.5-0.2,3-0.4,4.6-0.6c-0.9-2-1.1-4.2-0.7-6.4
				C166,171.8,161.2,170.4,160.6,173.6L160.6,173.6z"/>
		</g>
	</g>
	<g class="st1">
		<g>
			<path d="M305,164.8c-0.5,6,0.1,11.8,1.6,17.6c0.8,2.9,4.6,2,4.9-0.7c0.5-3.8,0.6-7.5,0.3-11.3c-1.6,0.4-3.1,0.8-4.7,1.3
				c2.8,4.3,4.5,8.8,5.5,13.9c0.5,2.8,5,2.1,4.9-0.7c-0.1-5.1-0.8-10-2.1-15c-0.7-2.6-5.1-2.2-4.9,0.7c0.5,6.2,2.3,11.7,5.7,16.9
				c1.6,2.5,5,0.8,4.6-1.9c-0.9-5.5-2-11-3.3-16.4c-1.6,0.4-3.2,0.9-4.8,1.3c2.5,7.8,4.2,15.7,5.2,23.8c0.4,3.1,5.1,3.3,5,0
				c-0.2-6.1-0.1-12.2,0.3-18.3c-1.6,0.4-3.1,0.8-4.7,1.3c3.8,5.3,5.8,11.4,7.7,17.6c0.9,2.9,4.6,2,4.9-0.7
				c0.6-4.9,0.2-9.7-0.9-14.6c-0.6-2.7-5-2.2-4.9,0.7c0.1,3.3,0.6,6.4,1.6,9.6c0.7,2.1,4.4,2.6,4.8,0c0.2-1.6,0.5-3.2,0.8-4.8
				c0.3-1.4,0-3.9,0.9-1.5c0.7,1.8,3.5,2.7,4.6,0.6c0.8-1.5,1.1-2.8,0.9-4.5c-0.3-3.2-5.3-3.2-5,0c-0.1,0.7-0.2,1.3-0.3,2
				c1.5,0.2,3,0.4,4.6,0.6c-1.1-2.8-3.1-6.2-6.6-5.2c-4.2,1.2-4.3,8.1-4.8,11.5c1.6,0,3.2,0,4.8,0c-0.9-2.7-1.4-5.3-1.4-8.2
				c-1.6,0.2-3.3,0.4-4.9,0.7c1.1,4.5,1.2,8.7,0.7,13.2c1.6-0.2,3.3-0.4,4.9-0.7c-2-6.6-4.1-13.1-8.2-18.8c-1.4-2-4.5-1.3-4.7,1.3
				c-0.4,6.1-0.5,12.2-0.3,18.3c1.7,0,3.3,0,5,0c-1-8.6-2.8-16.9-5.4-25.1c-1-3.1-5.6-1.8-4.8,1.3c1.3,5.4,2.4,10.9,3.3,16.4
				c1.5-0.6,3-1.3,4.6-1.9c-2.9-4.4-4.6-9.1-5-14.4c-1.6,0.2-3.3,0.4-4.9,0.7c1.2,4.5,1.8,9,1.9,13.6c1.6-0.2,3.3-0.4,4.9-0.7
				c-1-5.5-2.9-10.4-6-15.1c-1.3-1.9-4.8-1.4-4.7,1.3c0.3,3.8,0.2,7.5-0.3,11.3c1.6-0.2,3.3-0.4,4.9-0.7c-1.4-5.4-1.9-10.8-1.4-16.3
				C310.3,161.6,305.3,161.6,305,164.8L305,164.8z"/>
		</g>
	</g>
	<g class="st1">
		<g>
			<path d="M300.4,164.8c-0.7,12-0.5,27,11.4,33.8c4.5,2.6,10.7,4.7,15.3,1.4c5.2-3.7,9.1-9.9,11.9-15.5c1.5-2.9-2.9-5.4-4.3-2.5
				c-2.1,4.1-4.7,9-8.4,12c-4.9,4-10.9,2.2-15.2-2.1c-6.9-7-6.2-17.9-5.7-26.9C305.6,161.6,300.6,161.6,300.4,164.8L300.4,164.8z"/>
		</g>
	</g>
	<g class="st1">
		<g>
			<path d="M335.8,226.4c-4.2,7.1-8.4,14.2-12.6,21.4c-1.6,2.8,2.7,5.3,4.3,2.5c4.2-7.1,8.4-14.2,12.6-21.4
				C341.7,226.1,337.4,223.6,335.8,226.4L335.8,226.4z"/>
		</g>
	</g>
	<g class="st1">
		<g>
			<path d="M347.1,228.3c-2.1,5.2-4.2,10.3-6.2,15.5c-1.2,3,3.6,4.3,4.8,1.3c2.1-5.2,4.2-10.3,6.2-15.5
				C353.1,226.7,348.2,225.4,347.1,228.3L347.1,228.3z"/>
		</g>
	</g>
	<g class="st1">
		<g>
			<path d="M358.6,229.7c-1.1,4.7-2.6,9.2-4.7,13.5c-1.4,2.9,2.9,5.4,4.3,2.5c2.2-4.7,4-9.6,5.2-14.7
				C364.1,227.9,359.3,226.5,358.6,229.7L358.6,229.7z"/>
		</g>
	</g>
	<g class="st1">
		<g>
			<path d="M136.2,208c-0.7,1.8-1.4,3.6-2,5.4c-0.5,1.3,0.5,2.7,1.7,3.1c1.4,0.4,2.6-0.5,3.1-1.7c0.7-1.8,1.4-3.6,2-5.4
				c0.5-1.3-0.5-2.7-1.7-3.1C137.9,205.9,136.7,206.8,136.2,208L136.2,208z"/>
		</g>
	</g>
	<g class="st1">
		<g>
			<path d="M143.5,207.3c0,2.3,0,4.5,0,6.8c0,3.2,5,3.2,5,0c0-2.3,0-4.5,0-6.8C148.5,204.1,143.5,204.1,143.5,207.3L143.5,207.3z"/>
		</g>
	</g>
	<g class="st1">
		<g>
			<path d="M153.2,207.4c-0.9,1.6-1.8,3.2-2.6,4.8c-1.6,2.8,2.8,5.3,4.3,2.5c0.9-1.6,1.8-3.2,2.6-4.8
				C159.1,207.1,154.8,204.6,153.2,207.4L153.2,207.4z"/>
		</g>
	</g>
	<g class="st1">
		<g>
			<path d="M134.4,279.7c3,10.5,8,20.1,15,28.5c1.4,1.7,4.3,0.3,4.3-1.8c-0.2-7.2,1.2-13.9,4.3-20.3c1.4-2.9-2.9-5.4-4.3-2.5
				c-3.6,7.2-5.3,14.8-5,22.9c1.4-0.6,2.8-1.2,4.3-1.8c-6.4-7.8-11-16.6-13.7-26.3C138.3,275.3,133.5,276.6,134.4,279.7L134.4,279.7
				z"/>
		</g>
	</g>
	<g class="st1">
		<g>
			<path d="M222.4,311.4c0,9.3,3.3,17.8,9.4,24.8c1,1.1,3.3,0.9,3.9-0.5c2.9-6.4,6.2-12.6,9.9-18.6c1.7-2.8-2.6-5.3-4.3-2.5
				c-3.7,6-6.9,12.2-9.9,18.6c1.3-0.2,2.6-0.3,3.9-0.5c-5.2-6-7.9-13.3-8-21.3C227.4,308.2,222.4,308.2,222.4,311.4L222.4,311.4z"/>
		</g>
	</g>
	<g class="st1">
		<g>
			<path d="M167.1,170.8c0.3,2.7,0.6,5.4,0.8,8.1c0.1,1.3,1.1,2.5,2.5,2.5c1.2,0,2.6-1.1,2.5-2.5c-0.3-2.7-0.6-5.4-0.8-8.1
				c-0.1-1.3-1.1-2.5-2.5-2.5C168.3,168.3,166.9,169.5,167.1,170.8L167.1,170.8z"/>
		</g>
	</g>
	<g class="st1">
		<g>
			<path d="M171.2,175.6c0,0.5,0,0.9,0,1.4c0,1.3,1.1,2.6,2.5,2.5s2.5-1.1,2.5-2.5c0-0.5,0-0.9,0-1.4c0-1.3-1.1-2.6-2.5-2.5
				C172.3,173.1,171.2,174.2,171.2,175.6L171.2,175.6z"/>
		</g>
	</g>
	<g class="st1">
		<g>
			<path d="M176.4,170.6c0.2,0-0.1-0.1-0.2-0.2c-1.8-1.2-4.3,0.8-3.7,2.8c0.3,1.1,0.3,2.1-0.2,3.2c-0.6,1.2-0.3,2.7,0.9,3.4
				c1.1,0.7,2.8,0.3,3.4-0.9c1.2-2.2,1.5-4.7,0.7-7c-1.2,0.9-2.4,1.9-3.7,2.8c1.3,0.8,2.6,0.9,4.1,0.7c1.3-0.2,2.1-1.9,1.7-3.1
				C179.1,170.9,177.8,170.4,176.4,170.6L176.4,170.6z"/>
		</g>
	</g>
	<g class="st1">
		<g>
			<path d="M159.7,179c0.2,0.9,0.1,1.8-0.4,2.7c1.5-0.2,3-0.4,4.6-0.6c-1.1-2.1-1.5-4.1-1.3-6.4c-1.6,0.2-3.3,0.4-4.9,0.7
				c0.3,1,1.3,1.5,2.3,0.6c0.4-0.4,0.6-2.2,0.8-2.7c0.7-1.9,1.7-3.7,3-5.2c-1.4-0.6-2.8-1.2-4.3-1.8c0.1,1.4,0.1,2.7,0.2,4.1
				c1.6-0.2,3.3-0.4,4.9-0.7c-0.6-1.7-0.8-3-0.4-4.8c-1.5,0.2-3,0.4-4.6,0.6c0.8,1.1,1.3,2,1.4,3.4c0.2,3.2,5.2,3.2,5,0
				c-0.2-2.3-0.7-4.1-2.1-5.9c-1.2-1.5-4.1-1.7-4.6,0.6c-0.6,2.6-0.5,4.9,0.4,7.4s5,2.3,4.9-0.7c-0.1-1.4-0.1-2.7-0.2-4.1
				c-0.1-2-2.8-3.5-4.3-1.8c-2.7,3.3-7.8,11.3-4.4,15.5c1.3,1.6,3.4,1.8,5.1,0.7c2.3-1.5,2.2-4.3,1.6-6.7c-0.8-2.8-4.7-2.1-4.9,0.7
				c-0.3,3.2,0.4,6.1,2,9c1.1,2.1,3.8,1.3,4.6-0.6c0.5-1.4,0.7-2.5,0.6-4C164.4,175.8,159.4,175.7,159.7,179L159.7,179z"/>
		</g>
	</g>
	<g class="st1">
		<g>
			<path d="M155.6,178.9c-0.6,4.6,2,9.3,6.2,11.3c1.6,0.7,3.1,0.1,3.7-1.5c0.5-1.2,0.9-2.4,1.4-3.7c-1.6,0-3.2,0-4.8,0
				c0.4,1,0.5,1.8,0.4,2.8c1.7,0,3.3,0,5,0c-0.2-2.3,0.2-4.5,1.7-6.3c0.8-1.1,1-2.5,0-3.5c-0.9-0.9-2.7-1.1-3.5,0
				c-2.2,2.8-3.5,6.2-3.1,9.8c0.3,3.3,4.6,3.2,5,0c0.2-1.4,0-2.8-0.5-4.2c-0.9-2.3-3.9-2.4-4.8,0c-0.5,1.2-0.9,2.4-1.4,3.7
				c1.2-0.5,2.4-1,3.7-1.5c-2.8-1.3-4.1-4-3.7-7c0.2-1.3-1.3-2.5-2.5-2.5C156.6,176.4,155.8,177.6,155.6,178.9L155.6,178.9z"/>
		</g>
	</g>
	<g class="st1">
		<g>
			<path d="M305.1,180.3c-0.9,6,3.1,11.3,9.4,11.3c2,0,2.9-2.1,2.2-3.8c-1.9-4.3-3.9-8.5-5.8-12.8c-1.4,0.8-2.9,1.7-4.3,2.5
				c2.7,5.2,6.4,12.4,11.2,15.9c4.1,3,7.9-1.3,11.1-3.6c2.6-1.9,0.4-5.8-2.5-4.3c-0.8,0.4-9.1,4.5-9.1,4.7c-1.2,0.9-2.4,1.9-3.7,2.8
				c6.8,4.9,17,2.3,20.6-5.4c1.1-2.3-1.1-4.5-3.4-3.4c-3.2,1.5-6.4,2-9.8,1.3c-3.1-0.6-4.5,4.2-1.3,4.8c4.9,0.9,9.2,0.3,13.7-1.8
				c-1.1-1.1-2.3-2.3-3.4-3.4c-2.5,5.3-9,7-13.8,3.6c-1.7-1.2-4.4,0.8-3.7,2.8c2.9,7.5,12,0.6,16.4-1.7c-0.8-1.4-1.7-2.9-2.5-4.3
				c-1,0.7-3.9,3.7-5,3.7c-1.6,0-2.4-1.8-3.3-2.9c-2.8-3.5-5.1-7.3-7.2-11.3c-1.5-2.9-5.6-0.4-4.3,2.5c1.9,4.3,3.9,8.5,5.8,12.8
				c0.7-1.3,1.4-2.5,2.2-3.8c-2.6,0-5-2.1-4.6-5C310.4,178.5,305.6,177.1,305.1,180.3L305.1,180.3z"/>
		</g>
	</g>
	<g class="st1">
		<g>
			<path d="M314.5,169.5c-1.6-2.4-2.6-4.7-2.7-7.6c-1.6,0.2-3.3,0.4-4.9,0.7c1.2,3.5,0.6,6.8-1.5,9.8c1.4,0,2.9,0,4.3,0
				c-2-2.9-3-5.9-3.1-9.5c-0.1-3.3-4.6-3.1-5,0c-0.6,5-1.9,9.9-3.7,14.6c1.5-0.2,3-0.4,4.6-0.6c-2.4-3.9-4-7.9-4.8-12.4
				c-1.4,0.8-2.8,1.6-4.2,2.4c1.4,1.6,2.7,3.3,4.1,4.9c1,1.2,3.3,0.9,3.9-0.5c1.4-2.8,1.4-5.3,0.2-8.2c-1-2.5-4.6-1-4.7,1.3
				c-0.1,1.3-0.1,2.5-0.2,3.8c-0.2,3.2,4.8,3.2,5,0c0.1-1.3,0.1-2.5,0.2-3.8c-1.6,0.4-3.1,0.8-4.7,1.3c0.5,1.1,0.4,2.1-0.2,3.1
				c1.3-0.2,2.6-0.3,3.9-0.5c-1.4-1.6-2.7-3.3-4.1-4.9c-1.8-2.1-4.6,0.2-4.2,2.4c0.8,4.9,2.6,9.4,5.3,13.6c1.2,1.9,3.8,1.4,4.6-0.6
				c2-5.2,3.2-10.4,3.9-15.9c-1.7,0-3.3,0-5,0c0.1,4.4,1.3,8.4,3.8,12c1.1,1.6,3.2,1.6,4.3,0c2.9-4,3.6-9,2-13.6
				c-0.9-2.6-5.1-2.3-4.9,0.7c0.2,3.7,1.2,7.1,3.4,10.1C312,174.7,316.3,172.2,314.5,169.5L314.5,169.5z"/>
		</g>
	</g>
	<g class="st1">
		<g>
			<path d="M325,183c0.9,3.3,4.6,7.1,7.8,3.6c0.6-0.6,0.9-1.3,1.2-2.1c0.1-0.2,0.4-0.9,0.4-1.1c-0.1-0.5-1.4-0.3-1.5,0.1
				c-0.2,1.2,2.1,3.3,3.1,3.7c1.4,0.6,3.3,0.2,3.7-1.5c0.6-2.7,1.7-5,3.4-7.1c-1.3-0.2-2.6-0.3-3.9-0.5c0.7,1,1.6,2.6,1.1,3.9
				c-0.3,0.8-1.4,1.5-2,2.1c-1.5,1.8-2.7,3.7-3.7,5.8c-1.3,2.9,3,5.4,4.3,2.5c0.8-1.7,1.6-3.2,2.8-4.7c1-1.2,2.5-2.2,3.1-3.6
				c1.1-2.8,0.3-6.2-1.4-8.6c-0.8-1.2-2.8-1.8-3.9-0.5c-2.3,2.8-3.9,5.8-4.7,9.4c1.2-0.5,2.4-1,3.7-1.5c-0.9-0.4-1.3-2.1-1.9-2.8
				c-0.8-1-1.9-1.6-3.2-1.5c-1.2,0-2.3,0.7-3,1.7c-0.3,0.4-0.6,1-0.7,1.5c-0.5,1.8,0.5,0.9,0.2-0.2C329,178.5,324.2,179.9,325,183
				L325,183z"/>
		</g>
	</g>
	<g class="st1">
		<g>
			<path d="M222.8,201.5c-39.1,5.7-77.5,15.6-114.6,29.4c-2.2,0.8-2.6,4.2,0,4.8c8.5,2.1,18.1,1.2,26.9,1.3c9.9,0.1,19.8,0,29.6-0.2
				c19.4-0.5,38.8-1.6,58.2-3.4c8.2-0.8,16.8-1.2,24.7-3.6c4.6-1.4,13.6-4.3,12.8-10.7c-0.4-2.9-3-5-5-6.9c-3-2.8-6.2-5.3-9.7-7.4
				c-6.2-3.6-12.9-5.2-20-3.8c-3.1,0.7-1.8,5.5,1.3,4.8c7.2-1.5,13.8,1.4,19.5,5.5c1.6,1.1,6.8,4.5,7.6,6.6c1.7,4.8-6.4,6.5-9.5,7.3
				c-14.2,3.7-29.9,3.8-44.4,4.7c-15.1,1-30.3,1.6-45.4,1.8c-7.2,0.1-14.5,0.1-21.7,0c-7.6-0.1-16.2,0.7-23.6-1.1c0,1.6,0,3.2,0,4.8
				c37.1-13.8,75.5-23.7,114.6-29.4C227.3,205.8,226,201,222.8,201.5L222.8,201.5z"/>
		</g>
	</g>
	<g class="st1">
		<g>
			<path d="M293,247.3c-3.2,11.8,2.5,23,9.5,32.2c6.4,8.3,15.2,16.2,26.3,15.7c9.4-0.4,15-7.1,20.1-14.2c2.5-3.5,5-7.5,8.7-9.8
				c6.2-3.9,12.5,0.3,18.8,1.5c9.4,1.9,19.4-0.7,26.8-6.8c4-3.3,6.2-7.5,9.2-11.5c2.5-3.3,4.9-4.8,9.2-4.5c3.5,0.2,6.6,0.6,10-0.1
				c20-4.2,32.9-24.7,35.1-43.9c3.1-25.8-12.1-49.8-30.9-66.1c-2.4-2.1-6,1.4-3.5,3.5c15.8,13.7,29.1,32.6,29.8,54.2
				c0.7,19-9.7,40.1-28.5,46.5c-5.6,1.9-10.6,0-16.1,1c-3.9,0.7-6.7,3.2-9,6.3c-2.9,3.8-5,8-8.8,11.1c-4.4,3.5-9.9,5.6-15.5,5.9
				c-9.2,0.6-18-6.6-27-2.5c-6.4,2.8-10,9.3-13.9,14.7c-2.9,3.9-6.3,8-11.2,9.3c-7,1.9-14.1-1.6-19.2-6.2
				c-9.1-8.2-18.4-22.1-15-34.9C298.7,245.5,293.9,244.2,293,247.3L293,247.3z"/>
		</g>
	</g>
	<g class="st1">
		<g>
			<path d="M425.2,149.3c4.6,0.8,10.3,1.3,13.8-2.6c3.8-4.3,2.3-12.2,0.7-17.1c-1-3-5.8-1.7-4.8,1.3c1.1,3.2,2.7,8.9,0.7,12
				c-1.7,2.7-6.3,2-9,1.5C423.4,143.9,422,148.8,425.2,149.3L425.2,149.3z"/>
		</g>
	</g>
	<g class="st1">
		<g>
			<path d="M342.3,284.4c-1.3,9.6-0.8,19.3,1.9,28.6c1.2,4,4.7,18.3,11.1,12.7c3.5-3.1,6.3-8.1,9-11.9c2.9-4.1,5.4-8.5,6.8-13.3
				c3-10.4,1.1-21.5,1.7-32.2c0.2-3.2-4.8-3.2-5,0c-0.4,7.9,0.5,15.8-0.2,23.6c-0.8,8.7-4.7,15.4-9.8,22.3c-1.1,1.5-2.2,3-3.3,4.4
				c-0.5,0.7-1.1,1.5-1.7,2.2c0.6,2,0.4,2-0.4-0.1c-1.9-3.1-3-7.2-3.9-10.7c-2.1-7.9-2.6-16.2-1.4-24.3
				C347.5,282.5,342.7,281.2,342.3,284.4L342.3,284.4z"/>
		</g>
	</g>
	<g class="st1">
		<g>
			<path d="M398.4,264c1.8,12,4.6,23.8,8.7,35.2c2.3,6.4,5.6,19.6,13.4,10.6c15.4-17.8,15.7-42.4,15.1-64.6c-0.1-3.2-5.1-3.2-5,0
				c0.5,18.9,0.7,39.2-9.7,55.7c-1.1,1.7-2.7,5.1-4.5,6c-1.1,1.7-1.5,1.6-1.2-0.5c-0.5-1.1-0.9-2.2-1.4-3.4c-1.5-3.9-2.9-7.9-4.2-12
				c-2.9-9.3-5-18.7-6.4-28.3C402.7,259.5,397.9,260.9,398.4,264L398.4,264z"/>
		</g>
	</g>
	<g class="st1">
		<g>
			<path d="M298.7,303.9c-0.9,10.2-1.6,21.3,3.2,30.7c1.4,2.7,3.4,6.8,7.1,6.3c3.5-0.5,6.1-5.2,7.8-7.9c11.2-17.6,10.8-39.8,20.9-58
				c1.6-2.8-2.8-5.3-4.3-2.5c-7.8,14.2-9.6,30.3-14.9,45.4c-1.4,3.9-3.1,7.8-5.2,11.4c-0.8,1.3-2.5,4.9-3.8,5.5
				c-2,0.8-2.8-1.8-3.6-3.7c-3.7-8.4-2.8-18.1-2-27.1C304,300.7,299,300.8,298.7,303.9L298.7,303.9z"/>
		</g>
	</g>
	<g class="st1">
		<g>
			<path d="M406.5,440.7c17.6,16.4,22.5,43.8,11.4,65.2c-0.9,1.8,0.6,4.5,2.8,3.7c11.4-4.2,22.2-9.7,32.8-15.6
				c10.3-5.7,16-13.2,18.8-24.7c4.7-19.2,4.3-41.6-9.9-56.8c-2.2-2.4-5.7,1.2-3.5,3.5c12.9,13.9,12.8,34.6,8.6,52
				c-1.3,5.2-3,10.6-6.7,14.7c-3.3,3.6-7.7,5.9-11.9,8.2c-9.6,5.1-19.3,10.2-29.5,13.9c0.9,1.2,1.9,2.4,2.8,3.7
				c12.2-23.3,7.1-53.3-12.2-71.3C407.7,435,404.1,438.5,406.5,440.7L406.5,440.7z"/>
		</g>
	</g>
	<g class="st1">
		<g>
			<path d="M496.7,378.1c13.2,2.7,24.8,10.5,32.6,21.5c3.7,5.1,6.4,10.9,8.1,17c1.6,5.9,0.6,12.8,3.7,18.2c0.9,1.5,3.5,1.7,4.3,0
				c9.5-20.8,20-44.8,11.3-67.7c-6.6-17.4-24-29.1-42.4-29.5c-3.2-0.1-3.2,4.9,0,5c17.5,0.4,33.8,12.2,38.8,29.2
				c6.1,20.8-3.4,41.8-11.9,60.4c1.4,0,2.9,0,4.3,0c-1.9-3.4-1.4-7.7-2-11.5c-0.5-3.2-1.3-6.4-2.4-9.4c-2.2-6.1-5.4-11.8-9.4-16.9
				c-8.4-10.6-20.3-18.2-33.6-21C494.9,372.6,493.5,377.4,496.7,378.1L496.7,378.1z"/>
		</g>
	</g>
	<g class="st1">
		<g>
			<path d="M94.1,358.7c-1.7,5.2-7.9,6.9-12.4,8.9c-4.6,2-8.7,4.7-12.4,8c-7.4,6.6-12.7,15.4-15.8,24.8c-3.7,11.2-4.4,23.4-3.3,35.1
				c0.6,7.1,2.7,16.7,11.1,18c1.7,0.3,3-0.7,3.2-2.4c0.7-8.4,6.9-14.5,13-19.6c6.7-5.5,13.9-10.4,21.3-14.9
				c14.4-8.7,29.8-15.4,46-20c3.1-0.9,1.8-5.7-1.3-4.8c-18.2,5.3-35.6,13.1-51.6,23.3C79,423.4,61,434.3,59.6,451.2
				c1.1-0.8,2.1-1.6,3.2-2.4c-9.2-1.4-7.9-18.2-7.8-24.8c0.2-10.9,2.4-22,7.7-31.6c4.6-8.2,11.3-15.3,19.8-19.4
				c6.6-3.2,14.2-5,16.7-12.7C99.9,357,95.1,355.6,94.1,358.7L94.1,358.7z"/>
		</g>
	</g>
	<g class="st1">
		<g>
			<path d="M149.1,396.4c-8.5,10.6-10.8,24.2-6.1,37c3.9,10.4,11.2,25.7,24,26.4c1.7,0.1,2.7-1.7,2.4-3.2c-0.5-2.4-1.5-4.5-2.6-6.7
				c-1.9-4.3-1.5-6.8,1.7-10.2c4.7-4.8,10.1-9,15.7-12.8c2.6-1.8,0.1-6.1-2.5-4.3c-6.6,4.6-14.2,9.7-19,16.2
				c-5.2,6.9,0.4,12.2,1.9,19.2c0.8-1.1,1.6-2.1,2.4-3.2c-10.2-0.5-17-16.1-19.7-24.4c-3.5-10.5-1.6-21.8,5.4-30.5
				C154.6,397.4,151.1,393.9,149.1,396.4L149.1,396.4z"/>
		</g>
	</g>
	<g class="st1">
		<g>
			<path d="M532.2,238.7c16.5-14.7,33.6-30,44.1-49.9c5.2-9.8,9-20.7,8.3-31.9c-0.7-12-5.7-23.1-10.5-33.9c-1.3,1-2.6,2-3.9,3
				c13.2,12.6,18,31,21.3,48.5c3.7,20,4.7,40.4,2.9,60.7c-0.9,10.2-2.5,20.3-4.8,30.2c-2.2,9.3-5.1,18.1-12.2,24.7
				c-7.2,6.7-16.3,11.7-24.6,17c-8.7,5.6-17.4,11.1-26.2,16.5c-2.8,1.7-0.2,6,2.5,4.3c14.9-8.9,29.8-18.2,44.1-28.2
				c5.6-3.9,10.8-8.3,14.4-14.1c3.8-6.3,5.7-13.6,7.3-20.7c7.4-33.1,7.3-67.9-0.4-101c-3.5-15.2-9.1-30.4-20.6-41.4
				c-2.2-2.1-5.1,0.5-3.9,3c4.7,10.4,9.7,21.5,9.9,33.1c0.2,11.4-4.4,22.3-10.1,31.9c-10.4,17.4-25.9,31.2-40.9,44.5
				C526.2,237.3,529.8,240.9,532.2,238.7L532.2,238.7z"/>
		</g>
	</g>
	<g class="st1">
		<g>
			<path d="M164.9,279.6c-4.4,21.4-4.7,43.3-0.8,64.8c2,10.8,5,21.3,9.1,31.5c2,5,4.1,10.1,6.7,14.7c1.7,2.9,3.8,5.4,7.5,5.2
				c1.4-0.1,2.5-1.1,2.5-2.5c0.9-31,11.7-61.2,30.9-85.6c2-2.5-1.6-6.1-3.5-3.5c-20,25.5-31.4,56.7-32.3,89.2
				c0.8-0.8,1.7-1.7,2.5-2.5c-3.5,0.2-6.5-9.7-7.6-12.1c-2-4.5-3.7-9.2-5.3-13.9c-2.9-8.8-5-17.7-6.4-26.9
				c-2.8-18.9-2.3-38.3,1.6-57C170.4,277.8,165.6,276.5,164.9,279.6L164.9,279.6z"/>
		</g>
	</g>
	<g class="st1">
		<g>
			<path d="M186.9,262.1c-2.5,11.8-4.6,23.8-6.2,35.8c-1.5,11.5-2.9,23-0.4,34.4c0.7,3.1,5.5,1.8,4.8-1.3
				c-2.5-11.5-0.8-23.4,0.8-34.9c1.5-10.9,3.5-21.8,5.8-32.6C192.4,260.3,187.6,258.9,186.9,262.1L186.9,262.1z"/>
		</g>
	</g>
	<g class="st1">
		<g>
			<path d="M245.2,118.8c-2.3-9.8,0.7-19.2,7.8-26.3c5.8-5.8,12.9-10.1,18.6-16.1c-1.4-0.4-2.8-0.7-4.2-1.1c2,4.8,3.6,9.6,4.7,14.7
				c1.2,5.3,3.4,12.6,0.3,17.4c-5.3,8.5-15.7,17-25.2,8.8c-2.4-2.1-6,1.4-3.5,3.5c10.3,8.9,22.1,4.1,29.7-5.5
				c1.8-2.2,3.8-4.5,4.8-7.2c1.1-3.1,0.6-6.4,0.2-9.7c-1-8.1-3.2-15.9-6.3-23.4c-0.7-1.6-2.8-2.6-4.2-1.1c-6.8,7.2-15.9,12.1-22,20
				c-6.1,7.8-7.9,17.7-5.7,27.3C241.1,123.2,245.9,121.9,245.2,118.8L245.2,118.8z"/>
		</g>
	</g>
	<g class="st1">
		<g>
			<path d="M241.3,106.9c-7.8,2.1-11.5,10.8-8.9,18.2c2.9,8.1,13.2,15.1,21.9,13.8c4.9-0.8,9.9-3.7,14.2-6.1c4.3-2.5,8.5-5.4,12-8.9
				c6.4-6.5,11.5-16.6,6.4-25.3c-1.6-2.8-6-0.3-4.3,2.5c7.6,12.9-12,25.4-21.3,29.9c-3.5,1.7-7.1,3.7-11.1,2.9
				c-3.4-0.7-7-2.8-9.5-5.2c-4.8-4.7-6.2-14.7,2-16.8C245.7,110.9,244.4,106.1,241.3,106.9L241.3,106.9z"/>
		</g>
	</g>
	<g class="st1">
		<g>
			<path d="M299.8,209.3c6.3,10,22.4,8.1,32,5.1c3.1-1,1.8-5.8-1.3-4.8c-6.9,2.2-21.5,4.8-26.4-2.8
				C302.4,204.1,298,206.6,299.8,209.3L299.8,209.3z"/>
		</g>
	</g>
	<g class="st1">
		<g>
			<path d="M290,193.1c2.8,14.8,18.4,20,31.7,19.8c8-0.2,17.1-0.9,24.7-3.2c5-1.5,9.6-4.6,9.7-10.2c0-1.7-2.2-3.3-3.8-2.2
				c-9.9,7.5-21.6,12.3-34,13.4c-5.7,0.5-12.5,0.9-17.3-2.5c-5.6-4-10.6-9.4-15.7-14.1c-1.6-1.4-4.3-0.5-4.3,1.8
				c0,8.7,6.7,14.2,14.4,16.9c9.1,3.2,20.6,6.1,30.2,3.6c9.1-2.4,16.2-9.5,24.8-13c3.8-1.6,5.4-3.6,7-7.3c2.4-5.5,4.7-11,7-16.5
				c-1.6-0.4-3.1-0.8-4.7-1.3c0.8,9.4-6.6,16.2-13.6,21.3c-7,5-14.7,9.3-22.9,12.2c-7.3,2.6-20.4,6.6-26.9,0.8
				c-6.3-5.6-13.3-14.9-11.7-23.7c-1.6-0.4-3.2-0.9-4.8-1.3c-1,5.4,0.3,10.1,4,14.2c1.9,2.1,4.5-0.2,4.2-2.4
				c-1-7.5-3.2-14.6-6.5-21.4c-0.9-1.9-4.1-1.4-4.6,0.6c-2.3,10.1-1.7,20.2,2.2,29.8c1.2,3,5.4,1.9,4.8-1.3
				c-1.1-6.7-3.3-12.9-6.6-18.8c-1.2-2.2-4.7-1.2-4.7,1.3c0,5.3,0.7,10.5,1.9,15.6c1.5-0.6,3-1.3,4.6-1.9c-1.8-3.4-3-6.8-3.8-10.6
				c-0.6-3.2-5.4-1.8-4.8,1.3c0.8,4.2,2.2,8.1,4.3,11.8c1.4,2.5,5.2,0.8,4.6-1.9c-1.1-4.7-1.7-9.4-1.7-14.3
				c-1.6,0.4-3.1,0.8-4.7,1.3c3.1,5.5,5.1,11.3,6.1,17.6c1.6-0.4,3.2-0.9,4.8-1.3c-3.5-8.8-4.3-17.9-2.2-27.2
				c-1.5,0.2-3,0.4-4.6,0.6c3.1,6.4,5,13.1,6,20.2c1.4-0.8,2.8-1.6,4.2-2.4c-2.4-2.7-3.3-5.8-2.7-9.3c0.6-3.1-4.2-4.5-4.8-1.3
				c-2,10.4,4.2,19,10.9,26.4c3.6,4,6.8,6.2,12.3,6.3c5.6,0.2,11.3-0.7,16.6-2.2c11.1-3,21.7-8.7,30.9-15.6
				c7.8-5.8,15.1-13.8,14.2-24.2c-0.2-2.2-3.6-3.8-4.7-1.3c-1.7,4.1-3.5,8.1-5.2,12.2c-1.6,3.8-2.6,7.7-6.4,9.6
				c-3,1.5-6,2.5-8.8,4.3c-2.9,1.8-5.7,3.9-8.7,5.7c-8,4.7-16.2,3.9-24.9,1.8c-7.9-1.9-20.1-4.3-20.1-14.6c-1.4,0.6-2.8,1.2-4.3,1.8
				c5.4,4.9,10.7,10.7,16.7,14.8c5.3,3.6,12,3.7,18.2,3.3c13.9-0.8,27.1-5.8,38.2-14.2c-1.3-0.7-2.5-1.4-3.8-2.2
				c0,5.5-9.1,6.2-13.1,6.8c-5.9,0.9-12,1.7-18.1,1.6c-10.7-0.1-23-4.2-25.2-16.1C294.2,188.6,289.4,189.9,290,193.1L290,193.1z"/>
		</g>
	</g>
	<g class="st1">
		<g>
			<path d="M166.1,205.8c7.6-3.5,13.9-8.9,18.7-15.7c1.9-2.6-2.5-5.1-4.3-2.5c-3.4,4.7-8.1,7.8-12.8,10.9c-2.3,1.5-0.9,5.4,1.9,4.6
				c12.8-3.9,25.4-8.5,37.7-13.8c5.5-2.4,22.9-8.6,14.9-17.7c-6.8-7.7-16.7,9-19.9,13.2c-2.2,2.8-4.3,5.6-6.6,8.3
				c-1.1,1.2-2.2,2.9-3.5,3.8c-1.3,1-1,1.9-1.2,0.3c-0.3-2.6,2.3-7.3,3.2-9.8c1.4-3.9,3-7.8,4.6-11.6c-1.5-0.6-3-1.3-4.6-1.9
				c-0.8,4.3-2.8,7.8-6.3,10.5c1.1,0.3,2.3,0.6,3.4,0.9c-0.2-1.2-0.4-2.5-0.5-3.7c-1.6-0.4-3.2-0.9-4.8-1.3
				c-2.8,12.7-18.4,17.1-28.8,21.9c-2.2,1-1.2,5,1.3,4.7c9.5-1.2,20.6-1.5,28.1-8.2c3.6-3.2,5.5-7.6,7.2-12.1c1-2.7,1.8-5.6,3.3-8.1
				c0.9-1.7,1-1.8,0.5-0.4c-0.6,0.9-0.4,1.7,0.6,2.5c0.6,1.6,1.9,3.2,2.8,4.6c0.9,1.5,3.5,1.8,4.3,0c1.1-2.4,2.4-4.7,4-6.9
				c0.4-0.5,0.8-1.1,1.2-1.6c0-1.4-0.3-1.6-0.9-0.6c-0.7,0.2-2.4,2.6-2.8,3c-0.3,0.3-2,2.5-2.3,2.4c1,0.2-0.1-2.6-0.2-3
				c-1-3.9-1.6-7.8-2-11.7c-0.3-2.9-3.8-3.3-4.9-0.7c-1.2,3-0.9,5.7-1.1,8.9c-0.2,4.2-2.2,7.4-4.3,10.9c-4.3,7.2-8.9,14.2-13.7,21.1
				c1.5,0.2,3,0.4,4.6,0.6c-1.8-6.1-7.9-6-13-4.6c-3.1,0.9-1.8,5.7,1.3,4.8c1.8-0.5,6-2,6.9,1.1c0.7,2.2,3.4,2.3,4.6,0.6
				c5.1-7.4,10.1-15,14.7-22.8c1.6-2.8,3.2-5.6,3.8-8.8c0.6-3.6-0.3-7.1,1.1-10.6c-1.6-0.2-3.3-0.4-4.9-0.7c0.4,4.1,1,8.1,1.9,12.1
				c0.5,2.3,1,5.8,3.2,7.2c4.3,2.7,9.1-4.4,11.3-7.2s2.6-7.5-2.1-7.9c-5.3-0.5-8.8,7.9-10.6,11.5c1.4,0,2.9,0,4.3,0
				c-1.7-2.8-4.7-11.1-9.2-10.1c-3.7,0.8-5.2,7.5-6.3,10.5c-2.5,6.8-5.1,12.6-12.3,15.4c-6,2.3-12.7,2.7-19,3.5
				c0.4,1.6,0.8,3.1,1.3,4.7c11.8-5.5,27.9-10.5,31.1-24.9c0.7-3.1-3.9-4.4-4.8-1.3c-0.8,2.9-0.5,5,1,7.5c0.6,1,2.3,1.7,3.4,0.9
				c4.5-3.4,7.5-7.8,8.6-13.5c0.5-2.6-3.4-4.7-4.6-1.9c-2.4,5.3-4.5,10.8-6.4,16.3c-1.2,3.6-3.9,8.8-1.8,12.6
				c4.5,8.3,15.8-9.1,18.3-12.3c3.5-4.5,6.9-9.4,11-13.4c0.5-0.5,1-0.9,1.5-1.4c1.9,0.1,2.3,0.8,1.1,2.2c-0.4,1.9-2,2.5-3.6,3.3
				c-2.6,1.4-5.4,2.5-8.1,3.7c-12.5,5.4-25.2,10.1-38.2,14.1c0.6,1.5,1.3,3,1.9,4.6c5.5-3.6,10.7-7.3,14.6-12.7
				c-1.4-0.8-2.9-1.7-4.3-2.5c-4.3,6.2-10,10.8-16.9,13.9C160.6,202.8,163.1,207.1,166.1,205.8L166.1,205.8z"/>
		</g>
	</g>
	<g class="st1">
		<g>
			<path d="M280.1,314.2c-1.9,22-11.3,42.8-11.5,65.1c-0.2,15.8,4.7,36.1,19.9,44.1c6,3.2,13.9,3.5,18.2-2.7c4.9-7,3-17.8,1.7-25.6
				c-1.7-11-5.1-21.6-6.7-32.6c-0.6-4.4-1.2-9.5,0.5-13.8c2.3-5.5,7.2-5.6,12.2-4.5c8.6,1.9,16.1,3.4,21.2-5.3
				c5.8-9.8,8.6-21.6,9.3-32.8c0.2-3.2-4.8-3.2-5,0c-0.6,10-3.1,20.1-7.9,29c-5.1,9.5-12.6,4.3-20.8,3.6
				c-16.9-1.5-15.7,18.4-13.7,29.7c1.6,8.5,16.2,54.9-2.2,52.3c-8.6-1.2-14.7-10.4-17.7-17.7c-3.2-7.7-4.2-16.1-4.1-24.3
				c0.4-21.9,9.6-42.5,11.5-64.3C285.4,311,280.4,311,280.1,314.2L280.1,314.2z"/>
		</g>
	</g>
	<g class="st1">
		<g>
			<path d="M444.5,318.7c3.4,7.4,5.8,15,7.2,23.1c0.6,3.2,5.4,1.8,4.8-1.3c-1.5-8.4-4.1-16.5-7.7-24.2
				C447.5,313.3,443.2,315.8,444.5,318.7L444.5,318.7z"/>
		</g>
	</g>
	<g class="st1">
		<g>
			<path d="M460.9,314.1c1.3,8.3,2.5,16.6,3.8,24.9c0.5,3.2,5.3,1.8,4.8-1.3c-1.3-8.3-2.5-16.6-3.8-24.9
				C465.3,309.6,460.5,311,460.9,314.1L460.9,314.1z"/>
		</g>
	</g>
	<g class="st1">
		<g>
			<path d="M444,331.1c22-1.4,43.6-5.9,64.3-13.4c3-1.1,1.7-5.9-1.3-4.8c-20.3,7.4-41.4,11.8-63,13.2
				C440.8,326.3,440.8,331.3,444,331.1L444,331.1z"/>
		</g>
	</g>
	<g class="st1">
		<g>
			<path d="M442.6,326.4c15-1.2,29.5-5.1,43.1-11.6c2.9-1.4,0.4-5.7-2.5-4.3c-12.8,6.1-26.5,9.7-40.6,10.9
				C439.5,321.6,439.4,326.6,442.6,326.4L442.6,326.4z"/>
		</g>
	</g>
	<g class="st1">
		<g>
			<path d="M144.8,509.4c0.9,18.9,1.9,37.8,2.8,56.8c0.2,3.2,5.2,3.2,5,0c-0.9-18.9-1.9-37.8-2.8-56.8
				C149.6,506.2,144.6,506.1,144.8,509.4L144.8,509.4z"/>
		</g>
	</g>
	<g class="st1">
		<g>
			<path d="M121.5,516.1c13.3-7.8,27.6-13.9,42.5-17.9c7-1.9,14.7-4.1,21.9-4.1c2.8,0,6.5,0.2,8.4,2.6c3.2,4-1.3,8.4-4.5,10.5
				c-3.3,2.2-9.5,3.5-7.2,8.7c2.1,4.9,10.2,6.3,14.7,7.7c3.6,1.1,7.2,2.2,10.1,4.7c4.5,3.9,3.9,8.3,1.2,13.2
				c-3.4,6-7.9,11.5-12.9,16.2c-5.8,5.6-12.4,10.3-19.4,14.3c-3.8,2.2-7.7,4.4-11.8,5.8c-4.5,1.5-12.3,1.4-12.7-4.9
				c-0.2-3.2-5.2-3.2-5,0c0.5,6.7,6.2,11,12.8,10.9c8.2-0.1,16.7-5.7,23.4-9.9c7.4-4.7,14.3-10.1,20.1-16.6c5-5.5,11.6-13,12.6-20.6
				s-5.2-13.3-11.6-16c-4.3-1.8-9-2.6-13.3-4.5c-2.8-1.2-3.8-1.7-0.9-3.2c1.7-0.9,3.3-1.9,4.7-3c4.9-3.9,8.3-10.7,3.8-16.3
				c-3.9-4.9-11.2-4.9-16.9-4.1c-22,3-43.4,11.1-62.5,22.3C116.2,513.4,118.7,517.7,121.5,516.1L121.5,516.1z"/>
		</g>
	</g>
	<g class="st1">
		<g>
			<path d="M243.8,500.6c-4.4,9.5-13.6,20.5-7.2,31.2c2.4,4,6.6,6.9,11.1,8c3.1,0.7,9.4,1.1,10.9-2.6c1.7-4.2-3.9-5.9-6.9-5.6
				c-5.9,0.4-10.9,4.3-14.6,8.6c-7.4,8.7-13,21.9-6.5,32.7c7.9,13.1,25.1,10.9,37.2,6.3c3-1.1,1.7-6-1.3-4.8
				c-9.4,3.5-21.8,6.5-29.8-1.7c-8.4-8.6-2.2-22.1,4.4-29.6c1.6-1.8,3.4-3.5,5.5-4.7c1-0.6,7.3-2.1,6.7-3.4c0.1,0.3-6.2-0.6-7-1
				c-1.9-0.9-3.6-2.2-4.9-4c-6.3-8.6,3-19.2,6.6-26.9C249.5,500.3,245.2,497.7,243.8,500.6L243.8,500.6z"/>
		</g>
	</g>
	<g class="st1">
		<g>
			<path d="M278.6,570.1c3.6-25.1,10.9-49.4,21.7-72.3c-1.4,0-2.9,0-4.3,0c5.4,12.8,5.7,27.6,6.6,41.3c0.9,14.2,1.3,28.3,1.1,42.5
				c0,3.2,5,3.2,5,0c0.2-15.5-0.3-31-1.4-46.5c-1-13.4-1.7-27.3-7-39.8c-0.7-1.7-3.6-1.6-4.3,0c-11,23.3-18.5,48-22.2,73.5
				C273.3,571.9,278.2,573.3,278.6,570.1L278.6,570.1z"/>
		</g>
	</g>
	<g class="st1">
		<g>
			<path d="M280.3,547.2c11.3,5.4,23.4,7.9,36,7c3.2-0.2,3.2-5.2,0-5c-11.6,0.8-22.9-1.3-33.4-6.4
				C279.9,541.5,277.4,545.8,280.3,547.2L280.3,547.2z"/>
		</g>
	</g>
	<g class="st1">
		<g>
			<path d="M341.4,521.5c-4.8,16.3-12.9,49.5,9,57.3c23.1,8.2,27.2-28.5,26.9-43c-0.1-3.2-5.1-3.2-5,0c0.2,10.9-3.2,48.6-22.7,37.2
				c-8.4-4.9-8.8-15.2-8.3-23.9c0.6-8.9,2.3-17.7,4.8-26.2C347.1,519.7,342.3,518.4,341.4,521.5L341.4,521.5z"/>
		</g>
	</g>
	<g class="st1">
		<g>
			<path d="M386.6,520c7.9,21.5,12,44.1,12.1,67.1c0,3.2,5,3.2,5,0c-0.1-23.4-4.2-46.5-12.2-68.4C390.3,515.7,385.5,517,386.6,520
				L386.6,520z"/>
		</g>
	</g>
	<g class="st1">
		<g>
			<path d="M370.3,529.5c30.6-1.4,61.1-5.1,91.2-11c3.2-0.6,1.8-5.4-1.3-4.8c-29.6,5.9-59.7,9.5-89.9,10.9
				C367.1,524.7,367.1,529.7,370.3,529.5L370.3,529.5z"/>
		</g>
	</g>
	<g class="st1">
		<g>
			<path d="M465.1,510.7c0.2,10.3,2.5,20.4,6.9,29.8c2.2,4.6,4.9,9,8,13.1c2.3,2.9,5,6.5,9.1,6.5c8.4-0.1,13.2-13.3,15.8-19.4
				c4.4-10.5,6.7-21.7,7-33.1c-1.6,0.2-3.3,0.4-4.9,0.7c6.7,16.5,6,35.4-1.8,51.3c-3.7,7.4-9.3,15.9-16.6,20.2
				c-5.4,3.1-11.8,0.6-17.2-1.1c-5.5-1.7-10.9-3.7-16.2-5.9c-3-1.2-4.3,3.6-1.3,4.8c6.5,2.7,13.1,5.1,19.9,7
				c4.8,1.4,9.9,2.6,14.8,0.8c8.6-3.3,15.4-12.9,19.7-20.7c9.7-17.5,11.3-39.2,3.7-57.7c-1-2.5-4.8-2.3-4.9,0.7
				c-0.2,8.5-1.6,16.9-4.2,25c-1.4,4.2-3.1,8.3-5.2,12.2c-1.4,2.7-4.3,9.7-7.9,10.2c-3.7,0.6-8-7.4-9.5-9.8
				c-2.2-3.5-4.1-7.2-5.6-11.1c-2.9-7.5-4.4-15.3-4.5-23.3C470,507.5,465,507.5,465.1,510.7L465.1,510.7z"/>
		</g>
	</g>
	<g class="st1">
		<g>
			<path d="M56.1,35.2c-12,9.9-19.7,24.4-20.7,40c-1,14.3,4.3,33.2,15.9,42.7c5.2,4.2,12.4-2.7,16.6-5.8c6.5-4.9,12-11.1,15.1-18.6
				c2.1-5,5-15.4,1.1-20.2c-1.5-1.8-3.3-2.1-5.4-1.3c-4.2,1.5-8.4,4.8-12.2,7c-2.8,1.6-0.3,5.9,2.5,4.3c2.9-1.7,5.9-3.4,8.8-5.1
				c2-1.2,2-2,2.8,0.2c0.4,1.2,0.1,3.5,0,4.7c-0.5,6.5-3.6,12.7-7.7,17.7c-4,4.8-9.1,8.6-14.4,11.9c-3.6,2.2-4.3,1.4-6.9-1.9
				c-1.9-2.4-3.6-5-5-7.7c-11.8-21.8-5.7-48.6,13.2-64.2C62.1,36.7,58.6,33.1,56.1,35.2L56.1,35.2z"/>
		</g>
	</g>
	<g class="st1">
		<g>
			<path d="M87.6,46.5c6.1,16.3,12.9,32.4,20.3,48.1c1.4-0.8,2.9-1.7,4.3-2.5C106,79.6,96.8,68.3,92.3,54.9c-1-3.1-3.7-9.7-0.7-12.1
				c1.1-0.9,4-0.9,5.3-1.3c0.6-0.1,1.2-0.2,1.8-0.4c1.9-1.3,2.3-0.9,1.2,1.2c-0.1,3.6-2,7.8-2.9,11.3c-1.1,4.4-2.3,8.8-3.4,13.2
				c-0.6,2.3,2.4,4.3,4.2,2.4c11.2-12,28.6,1.8,32.5,13.8c1,3.1,5.8,1.7,4.8-1.3c-5-15.5-26.9-30.9-40.8-16c1.4,0.8,2.8,1.6,4.2,2.4
				c1.5-6,3.1-11.9,4.6-17.9c0.8-3.2,3.8-9.2,1.9-12.4s-6.5-1.7-9.3-1.1c-3.6,0.8-8.7,1.2-10.1,5.2c-1.3,3.5,0.3,8.7,1.3,12.1
				c1.3,4.5,3.2,8.9,5.4,13.1c4.8,9.4,11,18.1,15.8,27.5c1.5,2.9,5.7,0.4,4.3-2.5c-7.2-15.4-13.9-31-19.8-46.9
				C91.3,42.2,86.5,43.4,87.6,46.5L87.6,46.5z"/>
		</g>
	</g>
	<g class="st1">
		<g>
			<path d="M149.1,82.9c-9-16.6-13.4-35.3-12.5-54.2c0-0.6,0-6,0-5.9c0,0,4.7,5.4,5.1,5.9c3,3.4,6,6.9,8.9,10.3
				c6.8,7.9,13.6,15.8,20.3,23.8c2.1,2.5,5.6-1.1,3.5-3.5c-8.4-9.9-16.9-19.8-25.4-29.7c-2.5-2.9-14.2-19.7-16.8-8.5
				c-2.3,9.9-0.8,21.9,1,31.8c2.1,11.4,6,22.4,11.5,32.6C146.4,88.3,150.7,85.8,149.1,82.9L149.1,82.9z"/>
		</g>
	</g>
	<g class="st1">
		<g>
			<path d="M136.8,57.6c6.3-6.2,13.4-11.1,21.3-15c2.9-1.4,0.4-5.7-2.5-4.3c-8.3,4-15.7,9.3-22.3,15.8
				C130.9,56.3,134.5,59.8,136.8,57.6L136.8,57.6z"/>
		</g>
	</g>
	<g class="st1">
		<g>
			<path d="M210.2,18.9c-21.7-1.5-46.7,16.8-44.6,40.4c0.9,10.5,9.6,19.2,20.5,17.1c6.5-1.2,12.9-4.8,18.9-7.7
				c7.4-3.5,14.6-7.4,21.7-11.4c2.8-1.6,0.3-5.9-2.5-4.3c-9.5,5.5-19.3,10.5-29.4,15c-5.3,2.4-11.8,5.6-17.5,2.4
				c-5-2.9-7.1-8.8-6.8-14.4c1.1-19.6,21.1-33.3,39.7-32.1C213.4,24.2,213.4,19.1,210.2,18.9L210.2,18.9z"/>
		</g>
	</g>
	<g class="st1">
		<g>
			<path d="M282.3,6.2c-6.7,1.9-13.1,4.6-19,8.4c-3.5,2.2-11,6.2-11,11c0,4.1,4.3,5.7,7.8,6.2c8.3,1.3,17,0.9,25.3-0.1
				c-0.2-1.6-0.4-3.3-0.7-4.9c-13.4,2.9-26.3,7.4-38.6,13.4c-4.6,2.3-10.5,4.7-13.1,9.4s-0.8,9.8,1.5,14.2c2,3.7,4.8,7,9.4,6.9
				c6.2-0.2,13.3-3.5,19.2-5.5c14.1-4.6,28-9.8,41.7-15.5c2.9-1.2,1.6-6.1-1.3-4.8c-9.9,4.2-19.9,8-30,11.6
				c-5.1,1.8-10.2,3.5-15.3,5.1c-4.4,1.4-14.1,6.2-17.8,2.2c-1.5-1.6-2.9-4.6-3.3-6.6c-0.9-4.1,1.1-6.6,4.3-8.7
				c4.1-2.6,8.7-4.7,13.1-6.6c10.2-4.5,20.7-7.8,31.6-10.2c2.7-0.6,2.2-5.3-0.7-4.9c-5.2,0.6-10.3,1-15.5,0.8
				c-2.6-0.1-5.2-0.2-7.8-0.5c-2.6-0.3-5-0.3-3.1-3c2.1-3.2,7.9-5.9,11.3-7.7c4.3-2.3,8.8-4,13.4-5.3
				C286.7,10.1,285.4,5.3,282.3,6.2L282.3,6.2z"/>
		</g>
	</g>
	<g class="st1">
		<g>
			<path d="M513.5,66c11.3-12,26.3-24.5,28.4-41.8c-1.6,0.2-3.3,0.4-4.9,0.7c4.1,12.8,13.1,23.3,25.3,29c0.2-1.5,0.4-3,0.6-4.6
				c-9.1,1.7-13,10.8-15.9,18.6c-4.2,11.3-7.2,23-5.3,35.1c0.4,2.8,5.3,2.1,4.9-0.7c-2-15.6-8.1-49.1-30.9-43.9
				c-3.1,0.7-1.8,5.5,1.3,4.8c18.2-4.1,23,27,24.6,39.1c1.6-0.2,3.3-0.4,4.9-0.7c-1.6-9.9,0.8-19.7,4.1-29c2.4-7,5.3-17,13.7-18.5
				c2-0.4,2.5-3.7,0.6-4.6c-11-5.2-19.3-14.3-23-26c-0.9-2.8-4.6-2.1-4.9,0.7c-1.9,15.6-16.9,27.5-27,38.3
				C507.8,64.8,511.3,68.4,513.5,66L513.5,66z"/>
		</g>
	</g>
	<g class="st1">
		<g>
			<path d="M22.4,344.2c12.6,0.6,23.3-9.1,24.6-21.5c-1.6,0.4-3.1,0.8-4.7,1.3c4.4,7.5,8.8,17.8,18.3,19.7c-0.4-1.4-0.7-2.8-1.1-4.2
				c-8.4,9.8-14.2,21.1-17.1,33.6c1.6,0,3.2,0,4.8,0c-2.5-8.1,1.2-16.5-0.4-24.7c-1.5-7.4-8.6-13.6-15.6-15.8
				c-3.1-1-4.4,3.9-1.3,4.8c8.7,2.7,12.9,10.1,12.3,18.7c-0.4,6.2-1.6,12.1,0.3,18.2c0.7,2.3,4.2,2.5,4.8,0
				c2.7-11.7,8-22.3,15.8-31.4c1.1-1.3,0.9-3.8-1.1-4.2c-7.8-1.6-11.6-11.3-15.3-17.4c-1.4-2.3-4.4-1.1-4.7,1.3
				c-1,9.8-9.9,16.9-19.6,16.5C19.2,339.1,19.2,344.1,22.4,344.2L22.4,344.2z"/>
		</g>
	</g>
	<g class="st1">
		<g>
			<path d="M493.3,445.7c3.1,3.6,8.1,2.9,11.4,0c4.8-4.2,4.7-10.5,3.9-16.3c-1.4,0.8-2.8,1.6-4.2,2.4c5.4,6.6,11.5,12.4,20.6,11.1
				c-0.8-1.4-1.6-2.8-2.4-4.2c-6.9,8.5-14.8,16.5-19.3,26.7c-2,4.5-7.7,20.1,0.2,22c1.1,0.3,2.2-0.2,2.8-1.1c5-7.9,6.1-17.3,6-26.5
				c-0.1-8.3-2.3-16.7-9.9-21.2c-2.8-1.7-5.3,2.7-2.5,4.3c7.1,4.2,7.6,12.9,7.4,20.3c-0.2,7.3-1.3,14.3-5.2,20.5
				c0.9-0.4,1.9-0.8,2.8-1.1c-1.2-0.3,1.2-10.4,1.5-11.2c1.3-4,3.3-7.7,5.5-11.2c4.2-6.4,9.4-12,14.3-18c1.6-2,0.1-4.5-2.4-4.2
				c-7,1-11.8-5-15.8-9.8c-1.8-2.2-4.5,0.3-4.2,2.4c0.4,2.8,0.7,5.9-0.6,8.6c-0.9,2-3.9,5.8-6.5,2.9
				C494.8,439.7,491.2,443.3,493.3,445.7L493.3,445.7z"/>
		</g>
	</g>
	<g class="st1">
		<g>
			<path d="M44.9,147.2c-0.6,4.5,4.3,6.4,8.1,6c4.9-0.4,8.9-3.2,11.5-7.4c-1.5-0.2-3-0.4-4.6-0.6c1.7,8.8,5.7,16.7,11.6,23.4
				c0.6-1.4,1.2-2.8,1.8-4.3c-12.6-1.6-39.4-1.3-36.3,18.1c0.4,2.7,4,2,4.8,0c5-12.6,7.5-25.8,7.4-39.4c0-3.2-5-3.2-5,0
				c0,13.1-2.4,25.9-7.3,38.1c1.6,0,3.2,0,4.8,0c-2.3-14.7,23-12.8,31.5-11.8c2.3,0.3,3-2.8,1.8-4.3c-5.4-6.1-8.8-13.2-10.3-21.2
				c-0.4-2.2-3.5-2.3-4.6-0.6c-1,1.7-2.1,2.9-3.9,3.8c-0.8,0.4-6.7,2.3-6.4,0C50.3,144,45.3,144,44.9,147.2L44.9,147.2z"/>
		</g>
	</g>
</g>
<g id="Layer_2">
	<path class="st2" d="M594.3,288.2C568,180.3,447.6,61.8,430.5,50.8c-9.3,39.7-17.6,80.4-39.9,108.1c-21.2,26.3-56,54-90.6,54
		s-69.4-27.6-90.6-54c-22.3-27.7-30.6-68.5-39.9-108.1C152.4,61.8,32,180.3,5.7,288.2c-5.4,22-1,88.2,63.6,155.8
		C173.8,553.4,289,567.2,300,567.7c11-0.6,126.2-14.3,230.7-123.7C595.4,376.4,599.7,310.2,594.3,288.2z M139.2,294.7
		c0-24.5,19.8-44.3,44.3-44.3s44.3,19.8,44.3,44.3S208,339,183.5,339S139.2,319.1,139.2,294.7z M389.7,408.3
		c-0.2,1.1-0.5,2.2-0.8,3.3c-0.3,1.1-0.6,2.2-0.9,3.3l-1.1,3.2l-1.2,3.2l-1.3,3.2c-0.5,1.1-1,2.1-1.5,3.1c-0.5,1.1-1,2.1-1.5,3.1
		s-1.1,2.1-1.6,3.1l-1.7,3c-1.1,2-2.4,3.9-3.6,5.9c-0.6,1-1.3,1.9-1.9,2.9l-2,2.9l-4.1,5.6l0,0l-10.6,12.6l-4.5-17.3l-0.2-0.8
		l-0.3-1c-0.2-0.7-0.4-1.4-0.7-2c-0.5-1.4-1-2.7-1.6-4.1c-1.2-2.7-2.5-5.3-4.1-7.8c-0.8-1.2-1.6-2.5-2.4-3.6
		c-0.9-1.2-1.7-2.3-2.7-3.4c-0.5-0.6-0.9-1.1-1.4-1.6s-1-1.1-1.5-1.5c-1-1-2.1-1.9-3.1-2.9c-1.1-0.9-2.2-1.8-3.4-2.5
		c-0.6-0.4-1.2-0.8-1.8-1.1c-0.6-0.4-1.2-0.7-1.8-1.1c-1.2-0.7-2.5-1.3-3.8-1.8c-1.3-0.6-2.6-1-3.9-1.5c-1.4-0.4-2.7-0.9-4.1-1.1
		l-2.1-0.5l-2.1-0.3c-1.4-0.3-2.9-0.3-4.3-0.5c-1.5-0.1-2.9-0.1-4.4-0.2c-1.5,0.1-3,0.1-4.4,0.2c-1.4,0.2-2.9,0.2-4.3,0.5l-2.1,0.3
		l-2.1,0.5c-1.4,0.3-2.7,0.8-4.1,1.1c-1.3,0.5-2.7,0.9-3.9,1.5c-1.3,0.5-2.5,1.2-3.8,1.8c-0.6,0.3-1.2,0.7-1.8,1.1
		c-0.6,0.3-1.2,0.7-1.8,1.1c-1.2,0.8-2.3,1.7-3.4,2.5c-1.1,0.9-2.1,1.9-3.1,2.9c-0.5,0.5-1,1-1.5,1.5s-1,1.1-1.4,1.6
		c-0.9,1.1-1.8,2.2-2.7,3.4c-0.9,1.2-1.7,2.4-2.4,3.6c-1.5,2.5-2.9,5.1-4.1,7.8c-0.6,1.4-1.1,2.7-1.6,4.1c-0.2,0.7-0.5,1.4-0.7,2
		l-0.3,1l-0.2,0.8l-4.5,17.3l-10.6-12.6l0,0l-4.1-5.6l-2-2.9c-0.6-1-1.3-1.9-1.9-2.9c-1.2-2-2.5-3.9-3.6-5.9l-1.7-3
		c-0.6-1-1.1-2.1-1.6-3.1s-1.1-2-1.5-3.1c-0.5-1-1-2.1-1.5-3.1l-1.3-3.2l-1.2-3.2l-1.1-3.2c-0.3-1.1-0.7-2.2-0.9-3.3
		c-0.3-1.1-0.5-2.2-0.8-3.3c-0.2-1.1-0.4-2.2-0.5-3.3c0.4,1,1,2,1.5,2.9c0.6,0.9,1.1,1.9,1.8,2.8c0.6,0.9,1.3,1.8,1.9,2.7l2,2.6
		l2.1,2.5l2.2,2.4c0.7,0.8,1.5,1.5,2.3,2.3c0.7,0.8,1.5,1.5,2.3,2.2s1.6,1.5,2.4,2.2l2.4,2.1c1.5,1.3,3.1,2.5,4.6,3.8
		c1.4-3.1,3-6.1,4.7-9c1-1.6,2.1-3.2,3.2-4.8c1.1-1.6,2.3-3.1,3.6-4.6c0.6-0.7,1.3-1.5,1.9-2.2c0.7-0.7,1.3-1.4,2-2.1
		c1.4-1.4,2.8-2.7,4.3-4c1.5-1.2,3.1-2.5,4.7-3.5c0.8-0.6,1.6-1.1,2.5-1.6c0.8-0.5,1.7-1,2.5-1.5c1.7-0.9,3.5-1.8,5.3-2.6
		c1.8-0.8,3.7-1.4,5.5-2.1c1.9-0.5,3.7-1.2,5.6-1.6l2.8-0.6l2.9-0.5c1.9-0.4,3.8-0.4,5.7-0.6c1.9-0.1,3.8-0.1,5.7-0.2
		c1.9,0.1,3.8,0.1,5.7,0.2c1.9,0.2,3.8,0.3,5.7,0.6l2.9,0.5l2.8,0.6c1.9,0.4,3.8,1,5.6,1.6c1.8,0.7,3.7,1.3,5.5,2.1
		c1.8,0.8,3.6,1.7,5.3,2.6c0.9,0.5,1.7,1,2.5,1.5c0.9,0.5,1.7,1,2.5,1.6c1.6,1.1,3.2,2.3,4.7,3.5c1.5,1.3,3,2.6,4.3,4
		c0.7,0.7,1.4,1.4,2,2.1c0.7,0.7,1.3,1.4,1.9,2.2c1.3,1.5,2.4,3,3.6,4.6c1.1,1.6,2.2,3.2,3.2,4.8c1.8,2.9,3.3,5.9,4.7,9
		c1.5-1.2,3.2-2.4,4.6-3.8l2.4-2.1c0.8-0.7,1.6-1.5,2.4-2.2s1.6-1.5,2.3-2.2c0.7-0.8,1.5-1.5,2.3-2.3l2.2-2.4l2.1-2.5l2-2.6
		c0.6-0.9,1.3-1.8,1.9-2.7c0.6-0.9,1.2-1.8,1.8-2.8c0.5-1,1.1-1.9,1.5-2.9C390.1,406.1,389.9,407.2,389.7,408.3z M404.4,339
		c-24.5,0-44.3-19.8-44.3-44.3s19.8-44.3,44.3-44.3s44.3,19.8,44.3,44.3C448.7,319.1,428.9,339,404.4,339z"/>
</g>
</svg>
